<svg height="512pt" viewBox="0 0 512 512" width="512pt" xmlns="http://www.w3.org/2000/svg"><path d="m416 512h-320c-53.023438 0-96-42.976562-96-96v-320c0-53.023438 42.976562-96 96-96h320c53.023438 0 96 42.976562 96 96v320c0 53.023438-42.976562 96-96 96zm0 0" fill="#ffe6e2"/><g fill="#fc573b"><path d="m360.335938 197.855469h9.664062c-17.632812-34.480469-50.398438-59.96875-89.535156-67.472657-.113282 1.023438-.464844 1.9375-1.023438 2.847657l-2.960937 5.121093-34.367188 59.503907zm0 0"/><path d="m212.542969 297.070312-21.167969-36.863281-37.886719-65.535156-4.894531-8.304687c-12.976562 20.03125-20.59375 44.03125-20.59375 69.632812 0 14.785156 2.496094 29.007812 7.167969 42.207031 1.246093-.6875 2.734375-1.136719 4.207031-1.136719zm0 0"/><path d="m151.664062 314.144531h-9.664062c17.742188 34.703125 50.753906 60.191407 90.113281 67.582031 0-1.359374.335938-2.847656 1.132813-4.207031l2.160156-3.871093h.113281l34.242188-59.503907zm0 0"/><path d="m164.414062 179.425781 34.371094 59.503907 20.703125-35.839844.800781-1.472656 37.550782-65.089844 4.785156-8.414063c-2.191406-.113281-4.464844-.113281-6.625-.113281-38.6875 0-73.503906 17.183594-96.832031 44.480469 1.136719.800781 2.160156 1.824219 2.960937 3.070312zm0 0"/><path d="m349.871094 336.449219-2.269532-3.875-34.371093-59.613281-20.703125 35.949218-1.023438 1.9375-37.3125 64.625-4.894531 8.414063c2.269531 0 4.429687.113281 6.703125.113281 38.800781 0 73.503906-17.296875 96.945312-44.609375-1.265624-.558594-2.289062-1.582031-3.074218-2.941406zm0 0"/><path d="m376.832031 213.792969c-1.246093.6875-2.734375 1.136719-4.207031 1.136719h-73.152344l21.167969 36.863281 37.886719 65.535156 4.898437 8.304687c12.957031-20.03125 20.574219-44.03125 20.574219-69.632812 0-14.785156-2.496094-29.007812-7.167969-42.207031zm0 0"/></g></svg>